# xmcd
#
# Track frame offsets:
#	150
#	13841
#	26519
#	48588
#	70609
#	89973
#
# Disc length: 1594 seconds
# Revision: 0
# Processed by: cddbd v1.5.2PL0 Copyright (c) Steve Scherf et al.
# Submitted via: dBpowerAMP V12.0
#
DISCID=4d063806
DTITLE=Junior Senior - Move Your Feet [Remixed]
DYEAR=2003
DGENRE=House
TTITLE0=Move Your Feet [Original Radio Edit]
TTITLE1=Move Your Feet [Rascal Edit]
TTITLE2=Move Your Feet [Rascal Madness Mix]
TTITLE3=Move Your Feet [Rascal Extended Club]
TTITLE4=Move Your Feet [Original Extended Play]
TTITLE5=Move Your Feet [Djosos Krost Remix]
EXTD=
EXTT0=
EXTT1=
EXTT2=
EXTT3=
EXTT4=
EXTT5=
PLAYORDER=
